<svg width="24" height="24" xmlns="http://www.w3.org/2000/svg">
 <g>
  <title>Layer 1</title>
  <g stroke="null">
   <path stroke="null" fill="#7289da" class="st0" d="m9.86369,10.09974c-0.67276,0 -1.20389,0.59014 -1.20389,1.31011s0.54293,1.31011 1.20389,1.31011c0.67276,0 1.20389,-0.59014 1.20389,-1.31011c0.0118,-0.71997 -0.53113,-1.31011 -1.20389,-1.31011zm4.30804,0c-0.67276,0 -1.20389,0.59014 -1.20389,1.31011s0.54293,1.31011 1.20389,1.31011c0.67276,0 1.20389,-0.59014 1.20389,-1.31011s-0.53113,-1.31011 -1.20389,-1.31011z" id="svg_8"/>
   <path stroke="null" fill="#7289da" class="st0" d="m19.9079,0.19716l-15.8158,0c-1.33372,0 -2.41958,1.08586 -2.41958,2.43138l0,15.95743c0,1.34552 1.08586,2.43138 2.41958,2.43138l13.38442,0l-0.62555,-2.18352l1.51076,1.40454l1.42814,1.32192l2.53761,2.24254l0,-21.17429c0,-1.34552 -1.08586,-2.43138 -2.41958,-2.43138zm-4.55589,15.4145s-0.4249,-0.50752 -0.77899,-0.95603c1.54617,-0.4367 2.13631,-1.40454 2.13631,-1.40454c-0.48392,0.31868 -0.94423,0.54293 -1.35733,0.69637c-0.59014,0.24786 -1.15668,0.4131 -1.71141,0.50752c-1.13307,0.21245 -2.17172,0.15344 -3.05693,-0.0118c-0.67276,-0.12983 -1.2511,-0.31868 -1.73502,-0.50752c-0.27147,-0.10623 -0.56654,-0.23606 -0.86161,-0.4013c-0.03541,-0.02361 -0.07082,-0.03541 -0.10623,-0.05901c-0.02361,-0.0118 -0.03541,-0.02361 -0.04721,-0.03541c-0.21245,-0.11803 -0.33048,-0.20065 -0.33048,-0.20065s0.56654,0.94423 2.0655,1.39273c-0.35409,0.44851 -0.79079,0.97964 -0.79079,0.97964c-2.60843,-0.08262 -3.59986,-1.79403 -3.59986,-1.79403c0,-3.80051 1.69961,-6.88105 1.69961,-6.88105c1.69961,-1.27471 3.3166,-1.2393 3.3166,-1.2393l0.11803,0.14163c-2.12451,0.61375 -3.10415,1.54617 -3.10415,1.54617s0.25966,-0.14163 0.69637,-0.34228c1.2629,-0.55473 2.26614,-0.70817 2.67924,-0.74358c0.07082,-0.0118 0.12983,-0.02361 0.20065,-0.02361c0.71997,-0.09442 1.53437,-0.11803 2.38417,-0.02361c1.12127,0.12983 2.32516,0.46031 3.55265,1.13307c0,0 -0.93242,-0.88521 -2.93891,-1.49896l0.16524,-0.18885s1.61699,-0.03541 3.3166,1.2393c0,0 1.69961,3.08054 1.69961,6.88105c0,0 -1.00324,1.71141 -3.61167,1.79403z" id="svg_7"/>
  </g>
 </g>

</svg>