<svg width="240" height="240" xmlns="http://www.w3.org/2000/svg" xmlns:xlink="http://www.w3.org/1999/xlink">
 <g>
  <title>Layer 1</title>
  <g stroke="null">

   <path stroke="null" transform="translate(1.004 1)" d="m119.03468,0.52008c-49.47775,0 -63.94811,0.05104 -66.76088,0.28438c-10.15368,0.84401 -16.47193,2.44272 -23.35528,5.86981c-5.3047,2.63412 -9.48831,5.68752 -13.61723,9.96774c-7.51955,7.80575 -12.07686,17.40891 -13.7266,28.82405c-0.80209,5.54168 -1.03542,6.6719 -1.08282,34.97823c-0.01823,9.43545 0,21.85319 0,38.50923c0,49.43765 0.05469,63.89342 0.29167,66.70072c0.82031,9.88024 2.3698,16.0964 5.65106,22.8959c6.27085,13.01566 18.24745,22.78653 32.35687,26.43237c4.88543,1.25782 10.28128,1.95053 17.20839,2.27865c2.9349,0.1276 32.84906,0.21875 62.78144,0.21875c29.93238,0 59.86477,-0.03646 62.72675,-0.18229c8.02086,-0.37734 12.67842,-1.00261 17.82818,-2.33334c14.20056,-3.66407 25.95841,-13.2891 32.35687,-26.48706c3.21746,-6.63544 4.84897,-13.08858 5.58726,-22.45293c0.16042,-2.04167 0.22787,-34.59359 0.22787,-67.10177c0,-32.51364 -0.07292,-65.00541 -0.23333,-67.04708c-0.7474,-9.51565 -2.37891,-15.91411 -5.70028,-22.67715c-2.72527,-5.53621 -5.75132,-9.6706 -10.14456,-13.89796c-7.84039,-7.48856 -17.42896,-12.04587 -28.85504,-13.69379c-5.53621,-0.80026 -6.63908,-1.03724 -34.96729,-1.08646l-38.57303,0z" fill="url(#svg_6)"/>
   <path stroke="null" transform="translate(1.004 1)" d="m119.03468,0.52008c-49.47775,0 -63.94811,0.05104 -66.76088,0.28438c-10.15368,0.84401 -16.47193,2.44272 -23.35528,5.86981c-5.3047,2.63412 -9.48831,5.68752 -13.61723,9.96774c-7.51955,7.80575 -12.07686,17.40891 -13.7266,28.82405c-0.80209,5.54168 -1.03542,6.6719 -1.08282,34.97823c-0.01823,9.43545 0,21.85319 0,38.50923c0,49.43765 0.05469,63.89342 0.29167,66.70072c0.82031,9.88024 2.3698,16.0964 5.65106,22.8959c6.27085,13.01566 18.24745,22.78653 32.35687,26.43237c4.88543,1.25782 10.28128,1.95053 17.20839,2.27865c2.9349,0.1276 32.84906,0.21875 62.78144,0.21875c29.93238,0 59.86477,-0.03646 62.72675,-0.18229c8.02086,-0.37734 12.67842,-1.00261 17.82818,-2.33334c14.20056,-3.66407 25.95841,-13.2891 32.35687,-26.48706c3.21746,-6.63544 4.84897,-13.08858 5.58726,-22.45293c0.16042,-2.04167 0.22787,-34.59359 0.22787,-67.10177c0,-32.51364 -0.07292,-65.00541 -0.23333,-67.04708c-0.7474,-9.51565 -2.37891,-15.91411 -5.70028,-22.67715c-2.72527,-5.53621 -5.75132,-9.6706 -10.14456,-13.89796c-7.84039,-7.48856 -17.42896,-12.04587 -28.85504,-13.69379c-5.53621,-0.80026 -6.63908,-1.03724 -34.96729,-1.08646l-38.57303,0z" fill="url(#svg_5)"/>
   <path stroke="null" d="m120.81021,33.33268c-23.76361,0 -26.74591,0.10391 -36.07928,0.52865c-9.31513,0.42656 -15.67349,1.90131 -21.23704,4.06512c-5.75497,2.2349 -10.63675,5.2245 -15.50031,10.08987c-4.8672,4.86356 -7.85679,9.74534 -10.09899,15.49848c-2.16928,5.56538 -3.64584,11.92556 -4.06512,21.23704c-0.41745,9.33336 -0.52682,12.31749 -0.52682,36.0811s0.10573,26.7368 0.52865,36.07016c0.42839,9.31513 1.90313,15.67349 4.06512,21.23704c2.23673,5.75497 5.22632,10.63675 10.0917,15.50031c4.86173,4.8672 9.74352,7.86409 15.49484,10.09899c5.5672,2.16381 11.92738,3.63855 21.24069,4.06512c9.33336,0.42474 12.31384,0.52865 36.07563,0.52865c23.76544,0 26.73862,-0.10391 36.07198,-0.52865c9.31513,-0.42656 15.68078,-1.90131 21.24798,-4.06512c5.75314,-2.2349 10.62764,-5.23179 15.48937,-10.09899c4.8672,-4.86356 7.85679,-9.74534 10.09899,-15.49848c2.15105,-5.56538 3.62762,-11.92556 4.06512,-21.23704c0.41927,-9.33336 0.52865,-12.30837 0.52865,-36.07198c0,-23.76361 -0.10938,-26.74591 -0.52865,-36.07928c-0.4375,-9.31513 -1.91407,-15.67349 -4.06512,-21.23704c-2.24219,-5.75497 -5.23179,-10.63675 -10.09899,-15.50031c-4.8672,-4.8672 -9.7344,-7.85679 -15.49484,-10.08987c-5.57814,-2.16381 -11.94014,-3.63855 -21.25527,-4.06512c-9.33336,-0.42474 -12.30472,-0.52865 -36.07563,-0.52865l0.02734,0zm-7.8495,15.76828c2.32969,-0.00365 4.92918,0 7.8495,0c23.36257,0 26.13159,0.08385 35.3574,0.50313c8.53128,0.39011 13.1615,1.81563 16.24588,3.01329c4.08335,1.58594 6.99455,3.48178 10.05524,6.54429c3.06251,3.06251 4.95835,5.97918 6.54794,10.06253c1.19766,3.08074 2.62501,7.71096 3.01329,16.24224c0.41927,9.22399 0.51042,11.99483 0.51042,35.34646s-0.09115,26.12248 -0.51042,35.34646c-0.39011,8.53128 -1.81563,13.1615 -3.01329,16.24224c-1.58594,4.08335 -3.48543,6.99091 -6.54794,10.05159c-3.06251,3.06251 -5.97007,4.95835 -10.05524,6.54429c-3.08074,1.20313 -7.71461,2.62501 -16.24588,3.01511c-9.22399,0.41927 -11.99483,0.51042 -35.3574,0.51042c-23.36439,0 -26.13341,-0.09115 -35.3574,-0.51042c-8.53128,-0.39375 -13.1615,-1.81928 -16.24771,-3.01694c-4.08335,-1.58594 -7.00002,-3.48178 -10.06253,-6.54429c-3.06251,-3.06251 -4.95835,-5.97189 -6.54794,-10.05706c-1.19766,-3.08074 -2.62501,-7.71096 -3.01329,-16.24224c-0.41927,-9.22399 -0.50313,-11.99483 -0.50313,-35.36105s0.08385,-26.12248 0.50313,-35.34646c0.39011,-8.53128 1.81563,-13.1615 3.01329,-16.24588c1.58594,-4.08335 3.48543,-7.00002 6.54794,-10.06253c3.06251,-3.06251 5.97918,-4.95835 10.06253,-6.54794c3.08438,-1.20313 7.71643,-2.62501 16.24771,-3.01694c8.0719,-0.36458 11.20003,-0.47396 27.5079,-0.49219l0,0.02188zm54.55642,14.52869c-5.79689,0 -10.50003,4.69767 -10.50003,10.49639c0,5.79689 4.70314,10.50003 10.50003,10.50003c5.79689,0 10.50003,-4.70314 10.50003,-10.50003c0,-5.79689 -4.70314,-10.50003 -10.50003,-10.50003l0,0.00365zm-46.70691,12.26827c-24.81544,0 -44.93503,20.11959 -44.93503,44.93503c0,24.81544 20.11959,44.92592 44.93503,44.92592c24.81544,0 44.92774,-20.11048 44.92774,-44.92592s-20.11412,-44.93503 -44.92956,-44.93503l0.00182,0zm0,15.76828c16.10734,0 29.16676,13.05759 29.16676,29.16676c0,16.10734 -13.05941,29.16676 -29.16676,29.16676c-16.10916,0 -29.16676,-13.05941 -29.16676,-29.16676c0,-16.10916 13.05759,-29.16676 29.16676,-29.16676z" fill="#fff"/>
  </g>
 </g>
 <defs>
  <linearGradient id="svg_7">
   <stop stop-color="#3771c8" offset="0"/>
   <stop offset="0.128" stop-color="#3771c8"/>
   <stop stop-opacity="0" stop-color="#60f" offset="1"/>
  </linearGradient>
  <linearGradient id="svg_8">
   <stop stop-color="#fd5" offset="0"/>
   <stop stop-color="#fd5" offset="0.1"/>
   <stop stop-color="#ff543e" offset="0.5"/>
   <stop stop-color="#c837ab" offset="1"/>
  </linearGradient>
  <radialGradient xlink:href="#svg_8" fy="578.088" fx="158.429" gradientTransform="matrix(0,-3.612995147705078,3.361286163330078,0,-1863.0377027988434,844.7053833007812)" gradientUnits="userSpaceOnUse" r="65" cy="578.088" cx="158.429" id="svg_6"/>
  <radialGradient href="#svg_7" fy="473.455" fx="147.694" gradientTransform="matrix(0.3170791268348694,1.5836095809936523,-6.5293426513671875,1.3073633909225464,3021.937272787094,-818.7056884765625)" gradientUnits="userSpaceOnUse" xlink:href="#svg_7" r="65" cy="473.455" cx="147.694" id="svg_5"/>
 </defs>
</svg>